<?xml version="1.0" encoding="UTF-8" standalone="no"?>
<svg width="276px" height="316px" viewBox="0 0 276 316" version="1.1" xmlns="http://www.w3.org/2000/svg" xmlns:xlink="http://www.w3.org/1999/xlink">
    <!-- Generator: Sketch 39.1 (31720) - http://www.bohemiancoding.com/sketch -->
    <title>Group 4</title>
    <desc>Created with Sketch.</desc>
    <defs>
        <filter x="-50%" y="-50%" width="200%" height="200%" filterUnits="objectBoundingBox" id="filter-1">
            <feOffset dx="6" dy="5" in="SourceAlpha" result="shadowOffsetOuter1"></feOffset>
            <feGaussianBlur stdDeviation="2" in="shadowOffsetOuter1" result="shadowBlurOuter1"></feGaussianBlur>
            <feColorMatrix values="0 0 0 0 0.913477891   0 0 0 0 0.619275583   0 0 0 0 0.655358366  0 0 0 1 0" type="matrix" in="shadowBlurOuter1" result="shadowMatrixOuter1"></feColorMatrix>
            <feMerge>
                <feMergeNode in="shadowMatrixOuter1"></feMergeNode>
                <feMergeNode in="SourceGraphic"></feMergeNode>
            </feMerge>
        </filter>
    </defs>
    <g id="Page-1" stroke="none" stroke-width="1" fill="none" fill-rule="evenodd">
        <g id="Group-4" filter="url(#filter-1)" transform="translate(1.000000, 6.000000)">
            <g id="Group" transform="translate(88.000000, 197.000000) scale(-1, -1) translate(-88.000000, -197.000000) translate(7.000000, 118.000000)" stroke="#000000">
                <path d="M83.322464,157.16716 C83.322464,157.16716 87.5826866,157.338988 92.7426758,156.784424 C97.9026649,156.229859 101.715956,155.40379 102.993688,155.053015 C137.041387,145.705928 162,115.195694 162,79 C162,55.7870138 151.734771,34.9124009 135.390188,20.4586816 C121.013938,7.74558466 101.934408,0 81,0 C36.2649353,0 0,35.3695048 0,79 L0,80.0301514 L16.6542416,80.0301514 C16.6542416,80.0301514 17.1453899,58.4803194 28.5253849,42.6488991 C39.9102962,26.8106393 65.5316349,16.6907883 81,16.6907883 C98.6888555,16.6907883 118.893055,24.993517 131.56279,39.8959961 C141.046865,51.0514171 145.541966,66.978754 145.785797,80.0301514 C145.944133,88.5052989 141.325788,109.634242 126.567863,124.742271 C119.809644,131.660818 111.5575,136.636783 102.99369,140.464767 C94.4298809,144.292752 83.322464,144.676895 83.322464,144.676895 L83.322464,157.16716 Z" id="Oval" stroke-width="8" fill="#000000"></path>
                <path d="M146,79.452381 C146,60.8078335 137.76247,44.0414552 124.646447,32.4323045 C113.10995,22.2212125 97.7992163,16 81,16 C71.4803198,16 56.5535057,18.7059318 38.7723389,32.4323044 C34.7300388,35.5528036 27.0582568,42.9365232 22.4376516,53.3692665 C17.6604343,64.1556205 16,77.9715878 16,79.452381" id="Oval" stroke-width="2"></path>
            </g>
            <path d="M173,103.542123 L247.423851,22" id="Line" stroke="#000000" stroke-width="8" stroke-linecap="square"></path>
            <path d="M39,265 L17,293" id="Line" stroke="#000000" stroke-width="8" stroke-linecap="square"></path>
            <path d="M43,269 L36,296" id="Line" stroke="#000000" stroke-width="8" stroke-linecap="square"></path>
            <path d="M34.2342567,261.960649 L8.84683999,277.128185" id="Line" stroke="#000000" stroke-width="8" stroke-linecap="square"></path>
            <path d="M66,126.200439 C66,126.200439 159.4114,102.012192 163.186225,84.2624841 C167.244734,65.1788587 160.593116,26 160.593116,26" id="Line" stroke="#000000" stroke-width="8" stroke-linecap="square"></path>
            <path d="M153,188.241135 C153,188.241135 155.894488,154.845586 166.328044,119.823555 C176.7616,84.8015239 169.681959,125.414634 180.054104,108.556068 C195.143333,84.0304989 243.608455,50.349728 260.313554,45" id="Line" stroke="#000000" stroke-width="8" stroke-linecap="square"></path>
            <path d="M159,197.45314 C159,197.45314 173.88853,134.596334 186.912733,110.906345 C199.936936,87.2163565 256.321031,63 256.321031,63" id="Line" stroke="#000000" stroke-width="8" stroke-linecap="square"></path>
            <path d="M167,206.538963 C167,206.538963 171.449922,139.309202 184.474125,115.619213 C197.498328,91.9292243 252.844684,81 252.844684,81" id="Line" stroke="#000000" stroke-width="8" stroke-linecap="square"></path>
            <path d="M87,127.555017 C87,127.555017 161.750528,102.476667 167.446014,84.7269594 C170.139108,76.3340639 176.386193,56.2644389 178.244469,40.055088 C180.61151,19.407888 178.244469,3 178.244469,3" id="Line" stroke="#000000" stroke-width="8" stroke-linecap="square"></path>
            <path d="M71,131.522224 C71,131.522224 85.9729385,134.208701 109.168358,128.502769 C132.363777,122.796838 157.934014,106.127096 166.088257,103.104439 C181.712139,97.3128956 154.372058,108.681281 154.892478,108.497497 C162.572231,105.78543 167.729183,91.3336932 170.326346,89.7482832 C175.842066,86.381272 172.086588,93.734157 174.004149,87.7581709 C180.12766,68.6745455 204.933853,1 204.933853,1" id="Line" stroke="#000000" stroke-width="8" stroke-linecap="square"></path>
            <path d="M161.5,191.5 L171.5,158.5" id="Line" stroke="#000000" stroke-width="8" stroke-linecap="square"></path>
            <path d="M68,121.676374 C68,121.676374 80.361953,119.161868 93.2755499,116.678484 C106.189147,114.1951 119.27555,110 119.27555,110" id="Line" stroke="#000000" stroke-width="8" stroke-linecap="square"></path>
            <path d="M172,125 L191,85" id="Line" stroke="#000000" stroke-width="8" stroke-linecap="square"></path>
            <path d="M158,192 L164,152" id="Line" stroke="#000000" stroke-width="8" stroke-linecap="square"></path>
            <path d="M109,126 L147,106" id="Line" stroke="#000000" stroke-width="8" stroke-linecap="square"></path>
            <path d="M169,206 C169.885778,192.967666 169.992049,186.757747 170.924206,177.06036 C172.821816,157.319196 180,124 180,124" id="Line" stroke="#000000" stroke-width="8" stroke-linecap="square"></path>
            <path d="M170,102.861444 L234.480858,0" id="Line" stroke="#000000" stroke-width="8" stroke-linecap="square"></path>
            <path d="M160.841106,115.128855 C164.918527,119.903331 153.379639,166.568954 156.763686,166.568954 C163.943387,166.568954 181.702598,115.955844 181.702598,108.5 C181.702598,101.044156 175.882299,95 168.702598,95 C161.522896,95 129.311586,118.528387 129.002533,121.534828 C128.69348,124.54127 156.763685,110.354379 160.841106,115.128855 Z" id="Oval-4" fill="#000000"></path>
            <path d="M89,283.792069 C138.153343,283.792069 178,244.393127 178,195.792069 C178,183.864115 177.886687,157.794309 180.443863,140.595193 C183.685936,118.789586 188.857957,106.024534 178,97.0000001 C168.115742,88.7847509 148.630543,97.293699 126.409676,103.194343 C113.845433,106.530717 96.8723901,107.792069 89,107.792069 C39.8466573,107.792069 0,147.191011 0,195.792069 C0,244.393127 39.8466573,283.792069 89,283.792069 Z" id="Oval-6" stroke="#000000" fill="#000000"></path>
        </g>
    </g>
</svg>